<svg width="1920" height="739" viewBox="0 0 1920 739" fill="none" xmlns="http://www.w3.org/2000/svg">
<g clip-path="url(#clip0_149_1107)">
<rect width="1920" height="739" fill="url(#paint0_linear_149_1107)"/>
<path d="M1278.11 578.434C1268.99 583.704 1256.65 589.441 1257.58 593.382C1256.37 585.08 1258.5 581.582 1261.7 570.505C1258.04 573.677 1250.07 583.681 1250.19 590.257C1249.69 579.297 1249.18 568.344 1248.66 557.4C1245.97 567.178 1243.29 576.957 1240.6 586.736L1240.26 579.74L1238.51 583.821C1238.37 579.343 1238.25 574.889 1238.13 570.412C1236.69 579.009 1235.26 587.606 1233.82 596.203C1234.81 584.235 1231.88 572.273 1225.61 562.693C1226.09 570.171 1226.57 577.657 1227.04 585.15C1224.91 577.517 1221.48 570.453 1216.97 564.372C1219.11 571.661 1220.18 579.316 1220.13 587.016C1215.84 574.301 1214.41 560.529 1215.98 546.999C1210.86 558.172 1208.35 570.708 1208.72 583.354C1209.03 577.186 1208.14 571.015 1206.1 565.305L1204.09 578.457C1203.84 574.679 1203.6 570.902 1203.34 567.124C1202.86 570.925 1202.37 574.749 1201.87 578.574C1201.72 572.138 1200.43 565.807 1198.08 559.974C1195.73 554.141 1192.36 548.931 1188.2 544.667C1192.26 554.149 1194.19 564.664 1193.82 575.239C1192.77 571.446 1191.74 567.645 1190.72 563.836L1190.17 572.534C1190.09 567.186 1188.33 562.055 1185.22 558.099C1185.38 567.038 1183.42 575.855 1179.54 583.588C1180.3 571.99 1181.03 560.408 1181.74 548.841L1171.67 576.009C1172.69 564.877 1173.71 553.754 1174.73 542.638L1165.09 567.987C1165.21 562.977 1166.1 558.033 1167.73 553.389L1163.7 563.113C1164.29 552.741 1161.47 542.497 1155.81 534.43C1159.67 548.583 1159.41 563.817 1155.06 577.781C1154.1 565.699 1149.18 554.503 1141.31 546.486C1143.35 557.042 1145.37 567.606 1147.35 578.177C1144.38 573.442 1140.5 569.562 1136.03 566.837C1131.55 564.112 1126.6 562.614 1121.54 562.46C1128.21 568.202 1133.26 576.107 1136.04 585.173C1134.25 582.328 1132.27 579.297 1129.58 578.527C1128.87 578.379 1128.15 578.421 1127.47 578.651C1126.78 578.882 1126.15 579.294 1125.62 579.854C1125.1 580.415 1124.69 581.11 1124.44 581.883C1124.19 582.656 1124.09 583.487 1124.16 584.31C1124.34 582.663 1123.96 581 1123.11 579.664C1122.26 578.327 1121 577.42 1119.59 577.128C1118.17 577.277 1116.86 578.062 1115.93 579.317C1115.01 580.573 1114.54 582.197 1114.64 583.844C1113.14 580.397 1110.89 577.463 1108.12 575.332L1113.01 588.834C1112.74 587.755 1112.22 586.779 1111.51 586.008C1110.8 585.238 1109.93 584.7 1108.98 584.45C1108.64 586.116 1108.59 587.842 1108.83 589.531C1109.07 591.22 1109.59 592.837 1110.37 594.291C1107.33 583.494 1100.1 575.029 1091.77 572.487C1099.34 582.852 1104.28 595.445 1106.04 608.866L1101.23 605.018C1101.23 608.656 1101.23 612.294 1101.09 615.932C1098.88 615.818 1096.69 616.522 1094.84 617.944C1093 619.365 1091.59 621.429 1090.82 623.837C1103.67 613.623 1112.77 630.53 1127.66 630.18C1142.56 629.83 1164.28 623.884 1179.18 624.374C1211.94 625.423 1242.32 608.61 1274.65 617.937C1272.47 610.988 1277.16 594.268 1278.11 578.434Z" fill="#1D3A53"/>
<path d="M1275.94 570.63C1285.78 574.944 1299.09 579.608 1298.08 582.826C1299.37 576.063 1297.07 573.218 1293.63 564.17C1297.56 566.736 1306.17 574.897 1306.05 580.238L1307.68 553.49L1316.38 577.369L1316.74 571.609L1318.66 574.921C1318.78 571.283 1318.92 567.645 1319.06 564.007L1323.71 584.995C1323.26 579.959 1323.82 574.871 1325.36 570.131C1326.9 565.392 1329.36 561.132 1332.57 557.688C1332.04 563.797 1331.54 569.884 1331.02 575.993C1333.5 569.496 1337.19 563.715 1341.83 559.063C1339.55 564.853 1338.39 571.147 1338.43 577.509C1343.04 567.516 1344.63 556.025 1342.95 544.862C1348.32 553.482 1351.05 563.929 1350.71 574.548C1350.38 569.436 1351.36 564.327 1353.52 559.856C1354.23 563.424 1354.95 566.992 1355.68 570.56C1355.94 567.482 1356.2 564.404 1356.48 561.232L1358.05 570.56C1358.45 564.912 1360 559.456 1362.59 554.645C1365.17 549.834 1368.71 545.808 1372.91 542.903C1368.64 550.238 1366.52 558.971 1366.87 567.808C1367.98 564.707 1369.09 561.605 1370.21 558.48C1370.41 560.812 1370.6 563.144 1370.8 565.476C1370.92 563.203 1371.46 560.986 1372.39 558.975C1373.31 556.964 1374.59 555.205 1376.15 553.816C1376.03 561.336 1378.17 568.67 1382.19 574.571L1379.84 546.494L1390.79 568.601C1389.7 559.553 1388.61 550.497 1387.51 541.434C1390.94 548.336 1394.37 555.247 1397.79 562.165C1397.64 558.009 1396.67 553.949 1394.96 550.295L1399.32 558.201C1399.1 553.816 1399.75 549.43 1401.22 545.385C1402.7 541.34 1404.97 537.745 1407.84 534.881C1405.77 540.486 1404.78 546.541 1404.91 552.633C1405.05 558.725 1406.31 564.712 1408.63 570.187C1409.36 564.949 1411.07 559.959 1413.63 555.559C1416.19 551.159 1419.55 547.454 1423.46 544.698L1416.94 570.513C1424.45 562.248 1434.42 557.655 1444.78 557.688C1438.04 561.834 1432.58 568.305 1429.16 576.203C1430.96 573.603 1433.43 571.733 1436.21 570.863C1439.1 570.233 1442.73 572.612 1442.14 575.527C1442.13 574.766 1442.25 574.009 1442.49 573.301C1442.73 572.593 1443.09 571.948 1443.55 571.403C1444.01 570.859 1444.56 570.425 1445.16 570.128C1445.77 569.831 1446.42 569.677 1447.08 569.674C1448.41 569.59 1449.71 570.116 1450.71 571.137C1451.71 572.158 1452.32 573.592 1452.41 575.131C1454.19 572.124 1456.62 569.712 1459.46 568.135L1454.16 579.118C1454.57 578.155 1455.18 577.324 1455.94 576.702C1456.69 576.079 1457.57 575.683 1458.49 575.55C1458.86 576.923 1458.91 578.382 1458.65 579.787C1458.39 581.191 1457.82 582.495 1457 583.572C1458.9 578.979 1461.72 574.974 1465.22 571.889C1468.72 568.803 1472.8 566.725 1477.13 565.826C1469.35 573.48 1463.93 583.859 1461.69 595.395L1466.89 592.271C1466.89 595.232 1466.99 598.194 1467.03 601.155C1469.21 600.932 1471.4 601.415 1473.36 602.552C1475.32 603.688 1476.97 605.433 1478.12 607.592C1464.17 599.29 1454.32 613.072 1438.22 612.839C1422.11 612.605 1398.7 607.732 1382.61 608.175C1347.28 609.014 1314.53 595.325 1279.64 602.928C1282.02 597.144 1276.92 583.526 1275.94 570.63Z" fill="#1D5A6B"/>
<path d="M1018.63 589.558C1013.1 592.215 1008.15 596.279 1004.16 601.451C1004.56 594.082 1008.46 586.876 1014.87 581.722C1007.71 585.779 1001.31 591.41 996.022 598.303L997.532 566.215C996.103 572.791 994.673 579.39 993.264 585.966L992.982 574.726C988.952 572.261 985.498 568.7 982.916 564.349L982.131 587.132C980.662 574.26 972.85 561.971 960.852 553.599L969.79 576.545C968.844 574.866 967.878 573.187 966.932 571.485V575.752L961.657 566.868C960.986 574.283 960.315 581.699 959.644 589.115C957.309 579.787 954.987 570.459 952.678 561.131L946.337 582.119L948.088 546.836L936.553 571.858L938.183 560.198L935.888 565.655C936.48 563.559 936.546 561.311 936.079 559.173C935.613 557.035 934.632 555.094 933.251 553.576C932.264 560.385 931.238 567.217 930.251 574.027C931.137 560.408 924.896 546.58 913.421 536.715C919.608 545.76 922.543 557.221 921.615 568.71C919.381 558.554 914.4 549.491 907.402 542.848C908.65 548.445 909.918 554.019 911.186 559.615L909.173 552.386C908.871 554.718 908.589 556.84 908.308 559.056C905.22 546.294 904.48 532.923 906.133 519.809C902.107 529.028 898.134 538.247 894.215 547.466L895.182 539.98L893.813 543.758C893.088 540.75 892.363 537.741 891.618 534.733L887.854 552.363C888.035 542.102 881.069 531.958 870.278 526.711C874.307 533.453 877.014 541.134 878.21 549.215L873.198 545.064L873.862 552.363C866.495 543.724 857.848 536.686 848.335 531.585C852.026 539.7 855.703 547.816 859.367 555.931C852.606 548.466 847.579 539.146 844.751 528.833C842.313 539.666 842.459 551.063 845.174 561.807L841.007 549.868C841.228 553.832 841.47 557.82 841.711 561.784C841.188 559.662 840.685 557.54 840.181 555.394C839.879 557.377 839.598 559.359 839.296 561.341C838.809 555.685 836.502 550.448 832.833 546.673L835.732 569.853C832.31 559.755 823.653 550.94 812.339 546.067C817.585 553.246 821.382 561.691 823.452 570.785C821.782 569.894 820.296 568.602 819.091 566.993C817.887 565.385 816.992 563.498 816.466 561.458C813.869 568.668 810.264 575.333 805.796 581.186C806.641 575.272 806.085 569.203 804.186 563.626C803.005 567.917 801.81 572.2 800.602 576.475C801.085 572.488 798.851 568.337 794.945 565.912L781.92 595.038C783.228 591.7 783.871 588.063 783.801 584.398C783.732 580.732 782.951 577.132 781.517 573.864C779.826 580.859 778.155 588.042 776.464 595.108L771.29 584.731C770.371 585.818 769.712 587.164 769.377 588.636C769.041 590.107 769.042 591.654 769.378 593.126L757.298 575.613C756.815 583.759 756.346 591.897 755.889 600.028L751.742 599.352C750.413 606.115 749.105 612.901 747.716 619.663C748.34 611.572 744.112 603.34 736.623 598.023C739.738 606.908 741.311 616.417 741.253 626.006C749.662 626.398 758.06 624.966 766.016 621.786C775.015 625.657 785.906 624.677 795.77 622.765C805.635 620.853 815.56 618.101 825.686 618.684C837.061 619.384 847.348 624.281 858.119 627.382C889.565 636.5 924.071 630.391 957.409 629.714C971.663 629.388 986.097 630.087 999.968 627.382C1013.84 624.677 1027.41 617.728 1032.48 606.814C1025.03 609.146 1017.32 612.224 1009.61 613.694C1005.75 606.255 1012.49 594.945 1018.63 589.558Z" fill="#001032"/>
<path d="M901.101 597.953C902.505 600.079 904.445 601.648 906.652 602.441C908.859 603.235 911.225 603.215 913.422 602.384L918.515 609.59C917.173 598.334 915.831 587.063 914.489 575.776L928.279 612.924C924.999 593.856 928.317 574.058 937.519 557.797C932.766 573.203 932.066 589.897 935.506 605.765C934.608 592.017 937.422 578.285 943.559 566.472C943.116 573.864 942.653 581.256 942.21 588.672C942.714 585.524 943.237 582.399 943.74 579.344L944.586 585.43C947.764 573.613 948.071 561.011 945.472 549.005C950.706 562.764 955.947 576.538 961.195 590.328L963.671 552.06C965.563 561.559 967.462 571.05 969.368 580.533C968.59 573.94 969.307 567.226 971.45 561.051C973.593 554.877 977.087 549.455 981.588 545.321C977.286 556.34 975.299 568.383 975.79 580.463C976.074 575.906 977.19 571.471 979.064 567.451C980.938 563.431 983.528 559.918 986.661 557.144C985.131 564.699 983.608 572.247 982.091 579.787C982.957 577.595 983.843 575.426 984.729 573.234C984.548 577.898 984.386 582.562 984.225 587.226C994.903 570.7 1010.7 559.622 1028.29 556.327C1026.39 565.346 1023.43 574.018 1019.48 582.096C1022.34 576.382 1025.21 570.692 1028.09 564.979L1026.08 585.081C1027.79 579.041 1029.52 573.001 1031.23 566.961L1031.47 587.343C1034.73 573.478 1034.73 558.859 1031.47 544.994C1037.87 556.613 1041.95 569.731 1043.43 583.402L1046.21 571.742C1047.28 576.709 1048.37 581.676 1049.43 586.643L1051.63 582.539C1052.25 585.221 1052.88 587.926 1053.48 590.631C1058.36 580.37 1065.18 571.521 1073.43 564.746C1070.28 574.447 1067.1 584.14 1063.91 593.825C1066.07 589.945 1068.9 586.621 1072.21 584.061C1075.53 581.501 1079.27 579.761 1083.19 578.948L1074.46 597.44C1076.54 593.527 1079.54 590.368 1083.09 588.322L1081.08 601.125C1088.02 593.685 1093.16 584.271 1095.98 573.817L1101.55 609.963L1107.92 590.794C1107.69 598.274 1109.3 605.675 1112.57 612.131C1113.41 603.317 1114.25 594.51 1115.08 585.71C1116.43 591.564 1117.76 597.37 1119.11 603.27C1119.51 599.516 1119.91 595.761 1120.3 592.007C1120.3 594.478 1123.26 595.691 1125.09 594.339C1126.77 592.799 1127.89 590.572 1128.21 588.112C1130.2 579.385 1131.17 570.39 1131.11 561.365C1134.48 572.745 1137.83 584.125 1141.17 595.505C1141.53 587.689 1144.02 580.208 1148.29 574.139C1152.55 568.07 1158.37 563.728 1164.91 561.738C1161.51 565.65 1158.83 570.312 1157.02 575.447C1155.21 580.582 1154.3 586.086 1154.36 591.634C1155.33 587.884 1157.11 584.481 1159.52 581.744C1161.94 579.007 1164.91 577.026 1168.17 575.986C1164.36 581.278 1161.61 587.482 1160.12 594.152L1167.73 586.503L1166.76 590.234C1175.76 585.927 1185.26 583.162 1194.95 582.026C1191.04 582.917 1187.34 584.736 1184.07 587.369C1180.8 590.003 1178.04 593.392 1175.96 597.323C1183.57 594.889 1191.52 594.301 1199.33 595.598C1196.82 595.809 1194.39 596.757 1192.28 598.352C1190.17 599.946 1188.44 602.136 1187.26 604.716C1191.34 605.048 1195.38 603.565 1198.56 600.567C1201.73 597.569 1203.8 593.282 1204.35 588.579C1202.92 596.352 1201.48 604.125 1200.02 611.898C1204.45 605.28 1207.64 597.663 1209.38 589.535L1206.72 604.972L1212.56 588.415C1213.49 600.658 1213.04 612.988 1211.23 625.097L896.048 631.533C903.356 627.989 912.153 625.144 918.656 620.083C914.468 611.945 906.738 604.879 901.101 597.953Z" fill="#1D3A53"/>
<path d="M1248.56 602.383C1247.47 604.032 1245.97 605.248 1244.26 605.863C1242.55 606.477 1240.71 606.459 1239.01 605.811L1234.99 611.385C1236.02 602.663 1237.05 593.941 1238.09 585.22C1234.53 594.812 1230.97 604.396 1227.42 613.973C1229.95 599.21 1227.38 583.884 1220.25 571.298C1223.93 583.22 1224.48 596.141 1221.82 608.423C1222.51 597.821 1220.35 587.233 1215.64 578.107C1215.98 583.844 1216.35 589.581 1216.69 595.317C1216.31 592.869 1215.9 590.443 1215.5 588.018C1215.28 589.581 1215.08 591.166 1214.86 592.682C1212.39 583.529 1212.15 573.764 1214.17 564.465C1210.14 575.146 1206.08 585.811 1201.99 596.46C1201.35 586.588 1200.71 576.716 1200.08 566.844L1195.67 588.904C1196.27 583.8 1195.71 578.604 1194.05 573.824C1192.39 569.045 1189.69 564.848 1186.21 561.644C1189.54 570.169 1191.07 579.489 1190.68 588.834C1190.47 585.299 1189.62 581.854 1188.17 578.733C1186.72 575.611 1184.72 572.885 1182.28 570.738C1183.45 576.568 1184.64 582.398 1185.81 588.251C1185.14 586.572 1184.46 584.893 1183.79 583.191C1183.93 586.782 1184.05 590.35 1184.17 593.941C1175.86 581.188 1163.58 572.683 1149.95 570.225C1151.42 577.207 1153.73 583.917 1156.8 590.164C1154.58 585.756 1152.35 581.349 1150.13 576.918C1150.66 582.118 1151.2 587.295 1151.72 592.472C1150.39 587.808 1149.04 583.144 1147.7 578.481L1147.51 594.245C1144.99 583.519 1144.99 572.206 1147.51 561.48C1142.56 570.469 1139.39 580.627 1138.25 591.213C1137.53 588.205 1136.8 585.197 1136.1 582.188C1135.25 586.036 1134.43 589.861 1133.6 593.708L1131.89 590.537C1131.41 592.612 1130.95 594.711 1130.46 596.786C1126.69 588.849 1121.41 582.008 1115.02 576.778L1122.39 599.282C1120.72 596.277 1118.53 593.704 1115.97 591.722C1113.4 589.74 1110.51 588.392 1107.47 587.762L1114.24 602.08C1112.6 599.082 1110.29 596.662 1107.55 595.084L1109.12 604.995C1103.72 599.244 1099.7 591.951 1097.49 583.844C1096.14 593.172 1094.73 602.5 1093.24 611.828C1091.59 606.884 1089.94 601.94 1088.31 596.996C1088.5 602.786 1087.25 608.518 1084.7 613.507C1084.06 606.697 1083.39 599.865 1082.69 593.055C1081.64 597.579 1080.68 602.127 1079.59 606.651C1079.27 603.759 1078.97 600.844 1078.64 597.929C1078.64 599.841 1076.37 600.797 1074.96 599.795C1073.64 598.611 1072.77 596.881 1072.52 594.968C1070.99 588.219 1070.23 581.262 1070.29 574.283C1067.69 583.067 1065.08 591.874 1062.48 600.704C1062.2 594.651 1060.26 588.857 1056.96 584.159C1053.65 579.461 1049.14 576.1 1044.08 574.563C1046.71 577.585 1048.8 581.19 1050.2 585.165C1051.61 589.139 1052.31 593.4 1052.27 597.696C1051.52 594.794 1050.15 592.161 1048.28 590.044C1046.41 587.927 1044.1 586.395 1041.58 585.593C1044.51 589.672 1046.62 594.45 1047.76 599.585L1042.06 593.638C1042.31 594.594 1042.55 595.551 1042.81 596.507C1035.83 593.191 1028.47 591.055 1020.97 590.164C1023.99 590.854 1026.86 592.263 1029.4 594.301C1031.93 596.34 1034.07 598.965 1035.68 602.01C1029.79 600.122 1023.62 599.67 1017.56 600.681C1019.5 600.845 1021.37 601.571 1023.01 602.794C1024.64 604.017 1025.98 605.696 1026.9 607.677C1023.74 607.941 1020.61 606.797 1018.15 604.479C1015.69 602.161 1014.08 598.843 1013.66 595.201L1017.02 613.227C1013.59 608.096 1011.12 602.195 1009.77 595.9L1011.79 607.84L1007.4 594.968C1006.69 604.448 1007.04 613.995 1008.44 623.371L1252.46 628.338C1246.8 625.586 1240.02 623.394 1234.97 619.476C1238.19 613.203 1244.13 607.747 1248.56 602.383Z" fill="#1D5A6B"/>
<path d="M1944.37 520.399C1935.25 525.669 1922.89 531.406 1923.82 535.37C1922.63 527.069 1924.77 523.571 1927.85 512.471C1924.2 515.642 1916.23 525.646 1916.35 532.222C1915.83 521.34 1915.32 510.387 1914.82 499.365C1912.14 509.144 1909.45 518.922 1906.77 528.701C1906.65 526.369 1906.55 524.037 1906.43 521.705C1905.84 523.081 1905.26 524.434 1904.65 525.786L1904.29 512.401C1902.84 520.982 1901.41 529.579 1899.98 538.192C1900.97 526.217 1898.04 514.248 1891.77 504.658C1892.25 512.144 1892.72 519.63 1893.2 527.115C1891.07 519.483 1887.65 512.419 1883.13 506.337C1885.27 513.629 1886.33 521.282 1886.29 528.981C1881.98 516.274 1880.53 502.499 1882.11 488.964C1877.06 500.164 1874.64 512.698 1875.08 525.32C1875.39 519.152 1874.49 512.983 1872.46 507.27L1870.45 520.423L1869.7 509.089C1869.22 512.914 1868.72 516.715 1868.24 520.539C1868.08 514.083 1866.78 507.733 1864.41 501.887C1862.04 496.041 1858.65 490.824 1854.47 486.562C1858.52 496.079 1860.45 506.624 1860.06 517.228L1856.98 505.801C1856.8 508.716 1856.62 511.608 1856.42 514.499C1856.33 509.151 1854.57 504.02 1851.47 500.065C1851.62 508.999 1849.67 517.814 1845.81 525.553C1846.53 513.986 1847.26 502.412 1848 490.83L1837.94 517.974C1838.96 506.843 1839.97 495.719 1840.98 484.604L1831.43 510.069C1831.57 505.066 1832.47 500.131 1834.09 495.494L1830.07 505.195C1830.64 494.825 1827.82 484.584 1822.17 476.512C1826.04 490.672 1825.78 505.915 1821.43 519.886C1820.47 507.796 1815.55 496.591 1807.68 488.568C1809.69 499.124 1811.71 509.696 1813.72 520.283C1810.75 515.542 1806.87 511.657 1802.4 508.927C1797.92 506.198 1792.97 504.697 1787.91 504.542C1794.57 510.29 1799.6 518.194 1802.38 527.255C1800.61 524.41 1798.64 521.379 1795.94 520.609C1795.23 520.443 1794.5 520.473 1793.8 520.697C1793.1 520.921 1792.46 521.333 1791.92 521.898C1791.39 522.464 1790.97 523.168 1790.72 523.952C1790.46 524.737 1790.37 525.581 1790.45 526.416C1790.63 524.767 1790.25 523.101 1789.4 521.764C1788.55 520.426 1787.29 519.52 1785.88 519.233C1784.46 519.382 1783.14 520.168 1782.22 521.423C1781.29 522.678 1780.83 524.302 1780.92 525.949C1779.43 522.492 1777.18 519.548 1774.4 517.414L1779.29 530.916C1779.01 529.841 1778.49 528.87 1777.79 528.101C1777.08 527.331 1776.21 526.791 1775.27 526.532C1774.92 528.201 1774.87 529.932 1775.11 531.625C1775.35 533.318 1775.87 534.94 1776.66 536.397C1773.62 525.576 1766.39 517.111 1758.05 514.593C1765.63 524.936 1770.59 537.513 1772.37 550.925L1767.56 547.054C1767.56 550.692 1767.56 554.329 1767.41 557.967C1765.2 557.854 1763 558.561 1761.15 559.986C1759.3 561.411 1757.89 563.481 1757.13 565.896C1769.99 555.659 1779.09 572.589 1793.99 572.215C1808.89 571.842 1830.61 565.943 1845.51 566.409C1878.26 567.458 1908.64 550.645 1940.97 559.973C1938.72 552.953 1943.53 536.233 1944.37 520.399Z" fill="#1D3A53"/>
<path d="M1706.66 545.211C1701.13 547.877 1696.19 551.949 1692.2 557.128C1692.6 549.759 1696.51 542.553 1702.91 537.376C1695.75 541.427 1689.35 547.068 1684.07 553.98L1685.58 521.868L1681.29 541.62L1681.01 530.38C1676.98 527.905 1673.53 524.346 1670.94 520.003C1670.68 527.605 1670.44 535.207 1670.18 542.81C1668.69 529.937 1660.9 517.624 1648.88 509.252L1657.84 532.222L1654.98 527.162V531.406L1649.6 522.521C1648.96 529.937 1648.29 537.36 1647.59 544.792C1645.28 535.464 1642.96 526.136 1640.62 516.808L1634.3 537.796C1634.88 526.043 1635.46 514.29 1636.03 502.536L1624.5 527.535C1625.06 523.617 1625.61 519.7 1626.15 515.875L1623.77 521.285C1624.37 519.188 1624.44 516.937 1623.98 514.794C1623.52 512.652 1622.54 510.706 1621.16 509.182C1620.15 516.015 1619.14 522.825 1618.16 529.634C1619.04 516.039 1612.8 502.21 1601.31 492.322C1607.52 501.32 1610.51 512.744 1609.64 524.224C1607.42 514.068 1602.44 505.009 1595.43 498.385C1596.7 503.959 1597.97 509.556 1599.21 515.129L1597.1 507.9L1596.25 514.569C1593.16 501.809 1592.42 488.436 1594.08 475.322C1590.05 484.541 1586.08 493.76 1582.16 502.979L1583.13 495.494C1582.66 496.753 1582.2 498.012 1581.76 499.272C1581.03 496.263 1580.29 493.255 1579.56 490.247L1575.8 507.9C1575.98 497.639 1569.02 487.495 1558.22 482.248C1562.24 488.997 1564.95 496.675 1566.16 504.752L1561.14 500.601C1561.37 502.933 1561.59 505.475 1561.79 507.923C1554.43 499.277 1545.79 492.238 1536.28 487.145L1547.31 511.468C1540.58 504.058 1535.55 494.815 1532.68 484.58C1530.25 495.407 1530.4 506.797 1533.12 517.531C1531.73 513.543 1530.32 509.579 1528.93 505.591C1529.17 509.556 1529.42 513.543 1529.64 517.508C1529.13 515.386 1528.63 513.263 1528.11 511.141C1527.83 513.124 1527.54 515.082 1527.24 517.065C1526.76 511.374 1524.45 506.103 1520.76 502.303C1521.73 510.022 1522.67 517.764 1523.64 525.483C1520.24 515.386 1511.56 506.571 1500.27 501.72C1505.51 508.899 1509.31 517.344 1511.38 526.439C1509.71 525.543 1508.23 524.249 1507.02 522.641C1505.82 521.033 1504.92 519.149 1504.39 517.111C1501.79 524.317 1498.18 530.981 1493.72 536.84C1494.57 530.925 1494.01 524.857 1492.11 519.28C1490.9 523.571 1489.71 527.862 1488.53 532.152C1488.62 529.931 1488.13 527.729 1487.12 525.838C1486.11 523.947 1484.63 522.457 1482.87 521.565L1470.03 550.762C1471.33 547.425 1471.97 543.792 1471.9 540.13C1471.83 536.469 1471.04 532.873 1469.6 529.611C1467.93 536.606 1466.24 543.766 1464.57 550.855C1462.84 547.38 1461.11 543.859 1459.4 540.454C1458.47 541.543 1457.81 542.893 1457.48 544.369C1457.14 545.846 1457.14 547.398 1457.48 548.873L1445.41 531.336C1444.92 539.475 1444.46 547.66 1443.98 555.775L1439.85 555.076L1435.82 575.387C1436.45 567.295 1432.24 559.063 1424.75 553.746C1427.86 562.633 1429.43 572.142 1429.36 581.73C1437.78 582.141 1446.18 580.717 1454.14 577.533C1463.14 581.404 1474.03 580.401 1483.9 578.489C1493.76 576.576 1503.67 573.825 1513.79 574.431C1525.19 575.107 1535.46 580.004 1546.23 583.129C1577.69 592.247 1612.2 586.114 1645.54 585.461C1659.77 585.158 1674.22 585.834 1688.08 583.129C1701.93 580.424 1715.54 573.475 1720.61 562.538C1713.08 565.274 1705.44 567.57 1697.72 569.417C1693.89 561.908 1700.52 550.622 1706.66 545.211Z" fill="#001032"/>
<path d="M1589.21 553.607C1590.61 555.735 1592.55 557.306 1594.76 558.103C1596.96 558.901 1599.33 558.886 1601.53 558.061C1603.24 560.393 1604.93 562.842 1606.64 565.244C1605.3 553.988 1603.96 542.717 1602.62 531.43L1616.35 568.532C1613.07 549.456 1616.38 529.651 1625.59 513.381C1620.83 528.788 1620.13 545.481 1623.57 561.349C1622.67 547.601 1625.49 533.87 1631.63 522.056C1631.18 529.448 1630.72 536.864 1630.28 544.256C1630.78 541.131 1631.28 537.983 1631.81 534.928L1632.65 541.015C1635.83 529.198 1636.13 516.591 1633.52 504.589C1638.77 518.379 1644.01 532.153 1649.26 545.912C1650.08 533.148 1650.9 520.392 1651.72 507.644C1653.62 517.143 1655.52 526.642 1657.41 536.141C1656.64 529.548 1657.36 522.836 1659.5 516.663C1661.65 510.49 1665.14 505.067 1669.63 500.928C1665.29 511.919 1663.25 523.946 1663.7 536.024C1663.97 531.466 1665.09 527.029 1666.96 523.008C1668.84 518.987 1671.43 515.475 1674.57 512.705C1673.04 520.26 1671.51 527.792 1670 535.348L1672.61 528.818L1672.13 542.694C1682.85 526.239 1698.68 515.259 1716.26 512.075C1714.34 521.058 1711.36 529.69 1707.4 537.727C1710.27 532.037 1713.15 526.331 1716.02 520.61L1714.01 540.711C1715.74 534.679 1717.46 528.647 1719.18 522.615C1719.26 529.409 1719.33 536.195 1719.4 542.974C1722.67 529.112 1722.67 514.487 1719.4 500.625C1725.8 512.242 1729.89 525.36 1731.38 539.032L1734.16 527.373C1735.22 532.316 1736.31 537.284 1737.38 542.251L1739.57 538.146L1741.42 546.238C1746.29 535.974 1753.12 527.13 1761.38 520.377C1758.19 530.047 1755.02 539.74 1751.85 549.456C1754.01 545.573 1756.83 542.245 1760.15 539.681C1763.46 537.118 1767.2 535.373 1771.12 534.555L1762.38 553.048C1764.48 549.145 1767.47 545.99 1771.02 543.93L1769.01 556.732C1776 549.317 1781.18 539.898 1784.02 529.425C1785.88 541.458 1787.71 553.483 1789.54 565.5C1791.66 559.111 1793.78 552.721 1795.9 546.332C1795.66 553.813 1797.27 561.219 1800.55 567.669C1801.4 558.854 1802.24 550.047 1803.07 541.248C1804.42 547.101 1805.75 552.908 1807.09 558.808C1807.48 555.053 1807.88 551.322 1808.28 547.567C1808.18 550.016 1811.24 551.229 1813.07 549.899C1814.76 548.351 1815.88 546.116 1816.19 543.65C1818.19 534.932 1819.16 525.943 1819.07 516.925C1822.46 528.305 1825.81 539.685 1829.14 551.065C1829.52 543.259 1832.03 535.793 1836.31 529.742C1840.58 523.692 1846.4 519.367 1852.94 517.392C1849.53 521.306 1846.85 525.97 1845.03 531.11C1843.22 536.249 1842.31 541.758 1842.37 547.311C1843.33 543.56 1845.1 540.154 1847.51 537.413C1849.93 534.672 1852.9 532.686 1856.16 531.64C1852.35 536.932 1849.6 543.136 1848.1 549.806C1850.64 547.257 1853.17 544.707 1855.69 542.157C1855.37 543.393 1855.07 544.653 1854.75 545.888C1863.75 541.592 1873.24 538.828 1882.93 537.68C1879.03 538.577 1875.32 540.399 1872.05 543.032C1868.78 545.664 1866.02 549.05 1863.93 552.978C1871.54 550.554 1879.5 549.967 1887.32 551.252C1884.81 551.466 1882.38 552.414 1880.27 554.008C1878.15 555.603 1876.43 557.792 1875.24 560.37C1879.33 560.702 1883.37 559.219 1886.55 556.221C1889.72 553.223 1891.79 548.936 1892.33 544.233L1888 567.552C1892.43 560.936 1895.62 553.318 1897.35 545.189L1894.69 560.626L1900.55 544.07C1901.47 556.313 1901.01 568.643 1899.2 580.751L1584.19 587.188C1591.5 583.643 1600.3 580.821 1606.78 575.738C1602.51 567.599 1594.86 560.557 1589.21 553.607Z" fill="#1D3A53"/>
<path d="M1967.02 578.583C1964.21 577.269 1961.52 575.653 1958.97 573.755C1961.26 569.686 1963.96 565.951 1967.02 562.632V558.481C1965.88 558.539 1964.74 558.35 1963.66 557.921L1959.09 564.381L1962.67 534.065C1958.55 545.165 1954.43 556.273 1950.31 567.389C1953.25 550.291 1950.28 532.54 1942.04 517.951C1946.3 531.764 1946.92 546.73 1943.83 560.953C1944.65 548.634 1942.16 536.322 1936.68 525.717L1937.89 545.632C1937.45 542.81 1936.99 539.988 1936.52 537.19C1936.28 539.009 1936.02 540.828 1935.78 542.647C1932.92 532.057 1932.65 520.757 1934.99 509.999L1920.9 547.054C1920.15 535.628 1919.41 524.193 1918.69 512.751C1916.99 521.27 1915.3 529.782 1913.59 538.286C1914.28 532.376 1913.63 526.36 1911.71 520.827C1909.79 515.293 1906.67 510.43 1902.64 506.711C1906.47 516.599 1908.23 527.392 1907.79 538.216C1907.56 534.115 1906.56 530.12 1904.88 526.5C1903.2 522.88 1900.87 519.719 1898.05 517.228L1902.08 537.517L1899.72 531.663C1899.86 535.814 1900 539.942 1900.16 544.093C1890.54 529.358 1876.36 519.519 1860.61 516.645C1862.3 524.733 1864.97 532.504 1868.54 539.732L1860.99 524.388C1861.61 530.404 1862.22 536.397 1862.84 542.414L1858.19 526.09C1858.19 532.184 1858.12 538.271 1857.99 544.349C1855.06 531.922 1855.06 518.812 1857.99 506.385C1852.25 516.791 1848.58 528.55 1847.26 540.805L1844.76 530.357L1841.86 543.72C1841.22 542.484 1840.55 541.388 1839.85 540.035C1839.31 542.367 1838.76 544.862 1838.2 547.288C1833.84 538.088 1827.72 530.161 1820.32 524.108L1828.78 550.249C1826.84 546.779 1824.3 543.805 1821.33 541.511C1818.36 539.217 1815.02 537.651 1811.5 536.91C1814.11 542.445 1816.72 547.972 1819.33 553.491C1817.46 549.987 1814.77 547.16 1811.58 545.329C1812.21 549.153 1812.81 552.978 1813.42 556.802C1807.16 550.143 1802.51 541.701 1799.95 532.316L1795.02 564.637L1789.32 547.544C1789.54 554.251 1788.08 560.89 1785.13 566.666C1784.39 558.761 1783.64 550.879 1782.88 542.973C1781.69 548.22 1780.48 553.467 1779.29 558.737L1778.21 548.64C1778.21 550.832 1775.55 551.928 1773.92 550.786C1772.4 549.403 1771.4 547.4 1771.12 545.189C1769.34 537.374 1768.47 529.321 1768.52 521.239L1759.48 551.835C1759.17 544.817 1756.94 538.096 1753.11 532.645C1749.28 527.195 1744.05 523.298 1738.18 521.519C1741.23 525.023 1743.64 529.199 1745.27 533.802C1746.9 538.405 1747.71 543.339 1747.67 548.314C1746.79 544.964 1745.2 541.926 1743.04 539.479C1740.87 537.033 1738.22 535.259 1735.3 534.322C1738.69 539.088 1741.13 544.662 1742.45 550.646L1735.63 543.65C1735.93 544.769 1736.21 545.982 1736.49 547.008C1728.42 543.152 1719.91 540.67 1711.23 539.639C1714.73 540.447 1718.04 542.082 1720.97 544.441C1723.9 546.8 1726.38 549.833 1728.26 553.351C1721.44 551.176 1714.3 550.652 1707.3 551.812C1709.55 552.005 1711.73 552.857 1713.62 554.289C1715.51 555.72 1717.06 557.684 1718.11 559.997C1714.93 560.238 1711.76 559.263 1709.1 557.22C1706.44 555.177 1704.43 552.18 1703.38 548.687C1704.46 554.587 1705.57 560.486 1706.66 566.386C1702.69 560.449 1699.84 553.618 1698.28 546.331L1700.66 560.183L1695.42 545.329C1694.6 556.303 1695 567.354 1696.61 578.209L1967.02 583.736V578.583Z" fill="#001032"/>
<path d="M1873.77 528.695C1805.49 528.158 1700.12 532.689 1650.58 540.231C1561.12 549.572 1491.01 562.51 1416.88 574.583C1342.76 586.656 1260.45 598.285 1158.42 603.913C998.551 612.694 846.638 591.186 694.23 602.652C605.578 609.331 449.329 589.225 371.577 582.639C226.043 570.286 130.052 594.152 0 583.644V682.728H1739.85L1784.1 682.284C1819.67 681.934 1856.89 681.49 1887.05 678.594C1898.18 677.611 1909.19 676.011 1920 673.807V530.097C1906.93 529.326 1891.64 528.835 1873.77 528.695Z" fill="url(#paint1_linear_149_1107)"/>
<path d="M1903 755.711V582.841C1828.85 583.261 1726.77 597.311 1604.83 580.854C1517.25 569.025 1426.81 583.028 1337.86 584.711C1143.73 587.516 931.817 604.487 716.192 608.087C543.307 611.033 529.556 616.971 270.198 611.033C155.416 608.415 76.3764 604.16 0 599.461V746.15L336.725 755.711H1903Z" fill="url(#paint2_linear_149_1107)"/>
<g style="mix-blend-mode:multiply">
<path d="M873.195 616.904C840.372 614.995 807.425 613.062 773.858 612.247C742.614 611.595 710.874 611.991 680.219 610.361C615.594 606.915 574.936 609.686 510.249 606.193C453.334 603.096 381.587 613.341 323.961 611.292C258.933 608.964 189.602 617.067 126.556 612.317C115.966 611.502 37.7779 606.426 0 604.376V612.899L93.1132 659.983C548.306 655.465 1003.75 651.111 1459 651.111L873.195 616.904Z" fill="#CFCFCF"/>
</g>
<g style="mix-blend-mode:multiply">
<path d="M1839.91 628.323C1613.53 640.939 1386.3 638.071 1159.45 635.202C1194.93 635.645 1228.65 625.362 1262.67 619.718C1307.74 612.256 1356.16 611.23 1402.02 609.154C1495.66 604.91 1589.67 606.006 1683.12 612.442C1735.61 616.065 1787.88 621.358 1839.91 628.323Z" fill="#CFCFCF"/>
</g>
<g style="mix-blend-mode:multiply">
<path d="M1967.02 623.03C1952.93 621.786 1938.84 620.69 1924.75 619.742C1831.31 613.306 1737.3 612.209 1643.64 616.454C1597.8 618.529 1549.37 619.532 1504.31 626.994C1470.27 632.638 1436.55 642.945 1401.1 642.479C1589.75 644.81 1778.63 647.142 1967.06 640.73L1967.02 623.03Z" fill="#CFCFCF"/>
</g>
<g style="mix-blend-mode:multiply">
<path d="M1967.02 569.441C1930.89 565.321 1894.66 562.002 1858.31 559.484C1764.86 553.071 1670.84 551.951 1577.21 556.196C1531.35 558.271 1482.93 559.297 1437.86 566.759C1403.83 572.403 1370.11 582.71 1334.64 582.244C1545.5 584.926 1756.64 587.561 1967.12 577.813L1967.02 569.441Z" fill="#CFCFCF"/>
</g>
<g style="mix-blend-mode:multiply">
<path d="M1924.71 619.835C1929.82 645.207 1852.69 628.906 1782.45 622.866C1633.72 610.087 1475.91 630.678 1316.66 626.434C1352.13 627.367 1385.86 605.633 1419.88 593.787C1464.95 578.023 1513.37 575.877 1559.23 571.493C1652.86 562.538 1734.38 580.961 1827.85 594.533C1880.35 602.019 1919.11 591.851 1924.71 619.835Z" fill="#CFCFCF"/>
</g>
<path d="M1925 737.599L1922.31 643.764C1719.55 644.463 1568.67 646.21 1400.28 647.281C1128.51 649.028 929.305 645.441 584.919 647.281C375.354 648.422 162.634 640.736 0 647.164V737.576L1925 737.599Z" fill="#0C3860"/>
<path d="M1967.02 679.37L1964.3 680.769C1965.01 678.42 1965.92 676.162 1967.02 674.03V664.352C1961.56 666.105 1956.36 668.81 1951.6 672.374C1952.28 671.701 1952.83 670.869 1953.21 669.933C1953.59 668.996 1953.8 667.976 1953.82 666.941C1953.68 666.4 1953.45 665.898 1953.14 665.468C1952.83 665.039 1952.44 664.693 1952 664.452C1951.56 664.211 1951.08 664.082 1950.6 664.073C1950.11 664.064 1949.63 664.175 1949.19 664.399L1953.74 660.108C1950.39 661.95 1946.78 663.041 1943.09 663.326L1949 653.998C1936.5 655.353 1924.3 659.261 1912.97 665.542L1921.48 657.426C1911.82 656.593 1902.13 658.573 1893.3 663.186C1894.49 660.131 1895.68 657.076 1896.84 653.998L1881.7 657.729L1875.95 664.142C1874.15 658.686 1872.38 653.205 1870.59 647.819C1870.47 657.869 1861.47 666.708 1850.82 667.267L1859.54 659.898L1835.96 666.894C1836.27 663.636 1837.49 660.582 1839.43 658.196C1836.97 658.414 1834.58 659.227 1832.42 660.58C1830.25 661.934 1828.35 663.799 1826.84 666.055C1823.18 663.953 1819.99 660.905 1817.5 657.146C1818.14 658.14 1818.6 659.27 1818.85 660.471C1819.11 661.672 1819.16 662.92 1818.99 664.142C1809.89 659.852 1798.1 662.23 1792.26 669.553L1789.78 661.111L1787.53 665.775C1784.65 654.336 1779.55 643.813 1772.61 635.016C1777.24 642.547 1779.37 651.76 1778.62 660.965C1777.86 670.17 1774.26 678.749 1768.48 685.13C1767.72 682.238 1766.93 679.324 1766.17 676.409L1763.81 685.037C1764.88 673.027 1755.66 660.411 1743.16 656.797C1753.22 663.28 1760.13 674.263 1761.05 685.503C1753 675.942 1739.89 670.205 1727.25 670.695C1729.84 674.298 1731.59 678.609 1732.33 683.218L1723.39 676.525L1725.8 682.938C1721.57 681.935 1716.92 684.081 1715.37 687.789C1714.53 680.8 1715.22 673.678 1717.39 667.081C1707.32 673.937 1700.86 685.317 1700.4 697.396C1697.72 692.437 1696.2 686.755 1695.99 680.909C1695 684.78 1693.97 688.628 1693.01 692.569C1690.78 690.628 1688.06 689.595 1685.28 689.631C1688.35 691.947 1690.76 695.266 1692.2 699.169C1684.62 695.102 1676.2 693.637 1667.92 694.948C1668.89 696.673 1669.94 698.399 1670.8 700.125C1664.76 696.067 1655.74 697.116 1651.44 702.457C1651.88 697.956 1652.34 693.455 1652.78 688.955C1641.25 694.225 1632.45 704.159 1628.97 715.819C1628 711.497 1627.05 707.183 1626.11 702.876C1625.26 704.532 1624.44 706.188 1623.61 707.843C1622.36 705.633 1621.57 703.109 1621.32 700.478C1621.07 697.847 1621.36 695.185 1622.16 692.709L1610.45 717.171L1606.16 709.872C1605 710.369 1603.72 710.32 1602.59 709.736C1601.46 709.152 1600.57 708.079 1600.12 706.747C1599.95 705.489 1600 704.204 1600.26 702.967C1600.53 701.731 1601 700.566 1601.65 699.542C1591.44 702.503 1585.54 714.023 1589.13 723.794C1581.54 720.124 1573.6 717.547 1565.47 716.122C1568.59 718.691 1571.31 721.843 1573.52 725.45C1570.96 723.97 1568.14 723.173 1565.27 723.118C1567.39 724.337 1569.25 726.097 1570.7 728.266C1572.15 730.435 1573.16 732.956 1573.65 735.641C1566.16 727.129 1552.73 723.771 1542.32 727.805C1541.92 725.24 1538.07 724.191 1535.72 725.473C1533.65 726.819 1532.06 728.966 1531.23 731.536C1530.19 727.795 1530.32 723.75 1531.6 720.109C1532.87 716.468 1535.22 713.463 1538.21 711.621C1529.8 714.559 1523.62 722.115 1522.69 730.603L1518.48 727.082C1518.48 727.197 1518.46 727.31 1518.41 727.412C1518.37 727.514 1518.3 727.603 1518.22 727.672C1518.14 727.742 1518.05 727.79 1517.95 727.813C1517.86 727.836 1517.76 727.833 1517.66 727.805L1507.59 725.73L1517.03 732.726C1510.87 728.062 1499.7 730.09 1493.78 733.099C1491.48 734.022 1489.44 735.631 1487.84 737.763H1963.48C1964.51 732.865 1965.71 728.015 1967.02 723.211V679.37Z" fill="#0A1B45"/>
<path d="M854.054 737.576C850.591 730.253 847.169 722.978 843.988 715.819C843.52 722.249 841.695 728.447 838.673 733.868C837.566 728.878 836.519 723.934 835.533 718.99C834.64 723.584 832.345 727.65 829.07 730.44C828.325 727.175 827.601 723.934 826.896 720.692C827.782 723.724 822.729 725.356 819.83 723.304C818.597 722.506 817.68 721.185 817.27 719.619C816.861 718.054 816.992 716.365 817.635 714.909C813.045 717.599 808.381 720.288 803.644 722.978C802.476 718.127 801.369 713.347 800.302 708.589C795.148 711.699 789.921 714.87 784.619 718.104C783.552 714.349 782.606 710.595 781.559 706.91L773.828 715.725C774.352 712.344 774.875 708.963 775.439 705.581C772.339 708.869 769.258 712.134 766.138 715.375C766.621 710.074 767.145 704.788 767.708 699.518C763.02 706.822 756.99 712.828 750.053 717.101C750.455 711.854 750.918 706.631 751.402 701.43C746.959 705.364 742.476 709.25 737.953 713.09C736.814 710.231 736.224 707.121 736.224 703.972C736.224 700.824 736.814 697.713 737.953 694.854C732.88 699.813 727.78 704.726 722.653 709.592C721.667 699.098 712.406 690.283 699.24 687.578C700.327 692.926 701.481 698.368 702.703 703.902C699.804 700.241 696.985 696.673 694.207 693.198C693.442 696.02 692.677 698.842 691.932 701.687C687.559 699.912 683.791 696.562 681.182 692.126C677.865 696.15 673.794 699.237 669.284 701.15C670.259 695.006 672.938 689.397 676.914 685.176C664.21 690.05 651.548 694.714 639.106 699.168C640.354 695.857 641.623 692.561 642.911 689.281C641.143 692.898 638.27 695.618 634.858 696.906C631.094 698.212 626.705 696.3 627.872 694.248L622.276 699.938L615.028 688.954C614.384 693.618 610.619 698.818 604.822 702.69C605.405 696.673 602.647 691.193 597.312 687.368C596.031 692.329 593.683 696.83 590.488 700.451C590.628 698.515 590.689 697.536 590.83 695.624C589.244 696.613 587.493 697.193 585.696 697.326L578.59 697.513C577.517 695.782 576.967 693.69 577.025 691.561C577.083 689.432 577.747 687.384 578.912 685.736C567.866 692.742 556.038 697.945 543.762 701.197C544.79 695.36 547.218 689.978 550.767 685.666C546.741 688.115 542.715 690.33 538.688 692.662C540.702 691.706 540.963 689.561 539.031 688.721C537.098 687.882 534.823 688.861 534.42 690.004C534.42 687.275 534.279 684.57 534.199 681.842C530.591 686.801 526.257 690.985 521.395 694.201C524.958 686.692 521.677 678.157 512.819 672.164C511.53 675.989 510.222 679.79 508.913 683.614C508.43 681.002 507.947 678.367 507.444 675.732C506.867 678.639 505.364 681.188 503.236 682.868C499.524 676.629 497.467 669.269 497.317 661.694C493.07 668.293 485.238 673.61 475.394 676.618L476.602 663.699C473.917 665.798 471.233 667.912 468.549 670.042C469.314 668.899 467.623 666.87 465.368 666.591C464.329 666.359 463.252 666.511 462.292 667.026C461.331 667.54 460.534 668.391 460.013 669.459C458.47 665.557 456.886 661.608 455.262 657.613C452.464 661.25 449.665 664.888 446.907 668.573C443.332 660.561 438.835 653.148 433.54 646.536C434.584 650.007 435.019 653.684 434.819 657.353C434.618 661.021 433.786 664.606 432.372 667.897C430.58 660.248 423.977 652.389 414.595 646.699C414.857 649.031 415.099 651.363 415.34 653.555C414.937 652.362 414.161 651.388 413.166 650.827C411.274 649.614 408.475 650.57 408.415 651.829L400.362 638.607C399.574 644.036 397.052 648.923 393.296 652.296L385.122 631.728C383.492 636.392 381.901 640.892 380.311 645.51C380.729 644.474 380.849 643.31 380.654 642.189C380.458 641.068 379.957 640.05 379.224 639.283C377.573 637.698 374.01 637.861 373.688 639.283C372.741 633.453 372.258 630.515 371.252 624.592C365.989 631.837 359.149 637.32 351.442 640.473L344.738 626.318C343.228 629.792 341.718 633.313 340.249 636.788C329.619 629.093 321.566 618.692 317.882 607.825C318.605 614.378 317.913 621.036 315.869 627.204C310.548 620.499 305.896 613.122 301.998 605.213C300.689 612.046 299.985 615.451 298.757 622.283C296.925 619.485 295.073 616.663 293.241 613.818C295.475 618.995 284.282 618.482 280.88 613.818C277.477 609.154 277.035 602.555 271.76 599.22V599.78C271.547 599.151 271.305 598.536 271.035 597.938C264.288 605.153 256.579 611.059 248.206 615.427C248.467 612.792 248.729 610.18 249.011 607.545C247.38 608.898 242.065 608.012 239.589 605.773C237.113 603.534 234.717 601.342 232.281 599.22L228.255 606.566C222.739 601.202 217.189 595.854 211.606 590.522C213.686 596.139 214.463 602.289 213.861 608.361C208.828 605.242 204.745 600.406 202.164 594.51C201.882 599.873 201.721 602.555 201.439 607.895C198.93 604.957 196.406 602.026 193.87 599.103C193.42 601.803 192.424 604.341 190.965 606.509C189.506 608.677 187.625 610.415 185.475 611.58C182.576 601.949 181.126 597.145 178.187 587.514C175.57 593.414 172.993 599.313 170.416 605.237C169.792 601.925 169.188 598.614 168.564 595.279L163.31 611.02C160.317 600.698 155.172 591.391 148.332 583.922C149.22 591.817 148.354 599.844 145.815 607.242C140.661 602.283 135.474 597.331 130.253 592.387C129.347 595.466 128.441 598.544 127.555 601.715C126.313 598.745 124.3 596.299 121.798 594.719C121.133 597.984 120.489 601.249 119.785 604.537C107.705 597.308 95.5391 590.18 83.2855 583.153C85.8355 588.003 88.3789 592.854 90.9155 597.704C83.6009 593.927 76.2662 590.188 68.9114 586.488C69.2017 586.801 69.4233 587.19 69.5578 587.623C69.6923 588.056 69.7358 588.519 69.6846 588.975C69.6334 589.431 69.4891 589.867 69.2636 590.245C69.038 590.624 68.7379 590.934 68.3879 591.152C67.912 591.416 67.3934 591.561 66.8659 591.578C66.3384 591.595 65.8136 591.483 65.3258 591.25C64.8379 591.017 64.3978 590.668 64.034 590.225C63.6702 589.782 63.3908 589.256 63.214 588.68C62.7175 592.535 62.2343 596.422 61.7645 600.339C49.1217 591.665 26.4734 571.47 26.4734 571.47C26.4734 571.47 35.5529 588.283 32.8552 597.401C24.5206 594.587 16.1525 591.82 7.75077 589.099C8.01248 591.944 8.29433 594.789 8.57617 597.634C7.81116 595.116 2.65741 597.168 0 600.339V737.809L854.054 737.576Z" fill="#0A1B45"/>
<g style="mix-blend-mode:multiply">
<path d="M1084.2 603.348L1242.92 605.19C1273.46 605.54 1305.71 605.586 1332.16 594.3C1327.82 596.165 1305.71 591.152 1300.15 590.615C1288.95 589.542 1277.69 588.68 1266.39 588.027C1243.32 586.69 1220.2 586.285 1197.04 586.814C1174.45 587.304 1152.27 589.776 1129.8 590.872C1112.26 591.851 1095.51 591.385 1084.2 603.348Z" fill="#F1E7E7"/>
</g>
<path d="M1737.98 611.207H1725.84V337.97H1737.98V611.207Z" fill="#282B51"/>
<path d="M1762.74 443.562L1768.72 469.26L1750.95 455.805L1757.29 474.834L1731.92 450.674L1728.88 476.839L1722.16 451.444L1720.08 482.226L1711.17 454.685L1708.99 444.262L1701.12 476.279L1698.06 452.447L1662.17 474.857L1687.37 437.872L1662.17 452.797L1690.31 393.914L1669.51 412.244L1689.08 378.01L1668.35 395.593L1700.64 337.434L1684.05 351.193L1699.81 323.256L1683.63 338.087L1710.78 276.383L1688.74 294.269L1706.68 256.375L1694.01 269.294L1716 218.62L1702.81 230.98L1715.86 207.52L1704.2 214.073L1722.5 175.526L1715.39 180.376L1708.41 185.087L1734.98 111L1759.06 184.62L1746.82 175.549L1762.78 218.084L1752.64 206.028L1775.89 271.346L1757.99 246.534L1768.82 282.819L1759.12 275.917L1777.32 306.466L1760.95 296.718L1784.57 337.574L1767.29 322.16L1784.1 359.611L1771.46 348.837L1796.87 399.255L1773.78 378.313L1785.45 401.074L1769.81 386.545L1800.25 436.24L1782.94 429.64L1796.16 446.337L1778.49 443.818L1798.98 470.473L1762.74 443.562Z" fill="#001032"/>
<path d="M1873.93 629.676H1858.75V451H1873.93V629.676Z" fill="#342544"/>
<path d="M1904.9 560.463L1912.34 587.117L1890.14 573.172L1898.07 592.877L1866.34 567.832L1862.56 594.976L1854.14 568.648L1851.55 600.549L1840.41 572.006L1837.7 561.209L1827.85 594.393L1824.03 569.674L1779.15 592.9L1810.66 554.563L1779.15 570.047L1814.32 508.996L1788.33 527.978L1812.79 492.509L1786.86 510.745L1827.25 450.44L1806.49 464.689L1826.2 435.749L1805.97 451.117L1839.93 387.127L1812.37 405.69L1834.8 366.396L1818.95 379.805L1846.43 327.266L1829.96 340.068L1846.27 315.746L1831.7 322.555L1854.57 282.585L1845.69 287.622L1836.95 292.496L1868.26 227.131L1870.17 215.681L1900.27 292.03L1884.99 282.609L1904.92 326.729L1892.25 314.207L1921.32 381.927L1898.94 356.206L1912.49 393.82L1900.35 386.661L1923.09 418.329L1902.64 408.232L1932.17 450.58L1910.59 434.606L1931.59 473.457L1915.77 462.263L1947.55 514.546L1918.69 492.836L1933.28 516.435L1913.71 501.347L1951.78 552.884L1930.12 546.028L1946.67 563.354L1924.56 560.742L1950.19 588.353L1904.9 560.463Z" fill="#001032"/>
<path d="M1679.64 624.779H1667.58V465.785H1679.64V624.779Z" fill="#273058"/>
<path d="M1679.64 624.779H1673.6V465.785H1679.64V624.779Z" fill="#2D233A"/>
<path d="M1714.27 556.265L1731.68 566.176L1712.92 530.497L1722.22 540.595L1714.91 513.357L1727.59 529.798L1709.96 474.926L1719.1 493.116L1710.28 454.288L1723.87 479.59L1706.23 419.425L1714.87 434.303L1706.66 408.978L1714.23 417.443L1698.97 363.202L1714.67 386.801L1697.94 347.624L1703.76 353.827L1694.58 335.451L1706.25 345.292L1687.33 299.026L1692.95 305.182L1676.84 249.005L1676.3 242.009L1653.95 308.307L1659.75 304.366L1663.96 299.679L1661.66 305.555L1647.01 345.059L1660.74 325.191L1643.02 361.499L1658.12 346.225L1640.32 378.942L1648.38 370.361L1635.01 403.755L1650.27 385.495L1639.86 429.313L1647.73 413.992L1635.27 459.862L1646.28 443.561L1632.45 476.419V478.937L1640.2 471.405L1632.45 485.467V488.545L1640.14 478.634L1632.45 511.608V528.865L1634.97 525.204L1632.45 532.689V558.924L1640.44 555.589L1636.42 563.285L1632.45 567.809V572.799L1639.9 569.931L1657.45 556.032L1650.01 571.213L1670.06 551.275L1681.87 578.932L1680.59 556.312L1710.72 578.932L1703.09 555.123L1724.47 569.604L1714.27 556.265Z" fill="#1D3A53"/>
<path d="M1620.98 504.006H1612.7V385.845H1620.98V504.006Z" fill="#282B51"/>
<path d="M1637.83 445.404L1641.87 459.908L1629.79 452.329L1634.1 463.056L1616.85 449.415L1614.78 464.199L1610.21 449.858L1608.8 467.231L1602.74 451.677L1601.25 445.823L1595.89 463.873L1593.82 450.441L1569.38 463.056L1586.53 442.209L1569.38 450.627L1588.52 417.397L1574.39 427.727L1587.7 408.418L1573.59 418.353L1595.55 385.542L1584.28 393.284L1594.99 377.543L1583.99 385.915L1602.45 351.075L1587.46 361.173L1599.68 339.789L1591.06 347.088L1606 318.498L1597.04 325.47L1605.92 312.225L1597.99 315.933L1610.43 294.175L1605.59 296.927L1600.84 299.562L1617.88 264L1618.92 257.773L1635.31 299.306L1627 294.199L1637.85 318.195L1630.94 311.385L1646.76 348.254L1634.58 334.239L1641.95 354.713L1635.35 350.819L1647.73 368.052L1636.6 362.549L1652.66 385.612L1640.93 376.914L1652.34 398.041L1643.74 391.955L1661.04 420.428L1645.34 408.605L1653.27 421.454L1642.62 413.246L1663.35 441.276L1651.56 437.545L1660.55 446.989L1648.54 445.567L1662.47 460.585L1637.83 445.404Z" fill="#001032"/>
<path d="M1794.29 552.93H1783.68V413.036H1794.29V552.93Z" fill="#273058"/>
<path d="M1794.29 552.93H1788.98V413.036H1794.29V552.93Z" fill="#2D233A"/>
<path d="M1833.75 504.402L1814.93 491.647L1821.65 512.611L1795.12 492.696L1796.24 512.611L1785.86 488.265L1768.22 505.825L1774.76 492.463L1759.32 504.682L1744.91 508.88L1756.24 498.829L1759.8 492.066L1737.9 501.371L1751.97 483.671L1738.69 494.142L1754.99 465.319L1741.71 476.862L1759.54 424.369L1749.22 435.843L1759.6 418.003L1750.52 425.699L1764.94 393.471L1755.23 407.836L1766.23 367.469L1759.28 380.948L1768.44 342.401L1755.01 358.468L1766.77 329.062L1759.68 336.641L1775.37 307.841L1762.08 321.273L1777.66 289.348L1765.58 306.815L1778.49 272.045L1780.5 266.868L1776.8 270.996L1771.68 274.47L1791.35 216.148L1791.81 222.281L1806.01 271.719L1801.06 266.309L1817.7 307.025L1807.44 298.35L1815.51 314.534L1810.4 309.077L1825.11 343.543L1811.28 322.789L1824.73 370.501L1818.07 363.062L1825.29 385.332L1817.7 372.227L1833.21 425.186L1821.27 402.915L1829.02 437.102L1820.97 421.105L1836.49 469.376L1825.31 454.895L1831.78 478.891L1823.56 469.983L1840.07 501.371L1824.75 492.649L1833.75 504.402Z" fill="#1D3A53"/>
<path d="M1757.67 614.797H1749.58V508.18H1757.67V614.797Z" fill="#273058"/>
<path d="M1757.67 614.797H1753.62V508.18H1757.67V614.797Z" fill="#2D233A"/>
<path d="M1787.75 577.812L1773.39 568.088L1778.51 584.062L1758.3 568.904L1759.16 584.062L1751.25 565.523L1737.8 578.885L1742.79 568.718L1731.02 578.022L1720.02 581.217L1728.68 573.568L1731.38 568.414L1714.69 575.504L1725.4 562.002L1715.29 570L1727.71 548.033L1717.59 556.825L1731.18 516.808L1723.33 525.576L1731.22 511.957L1724.31 517.811L1735.3 493.278L1727.92 504.215L1736.27 473.433L1731 483.717L1737.98 454.335L1727.73 466.577L1736.69 444.191L1731.3 449.95L1743.24 428.007L1733.11 438.244L1744.99 413.898L1735.79 427.214L1745.61 400.723L1747.14 396.782L1744.32 399.93L1740.44 402.565L1755.44 358.118L1755.8 362.782L1766.61 400.466L1762.82 396.339L1775.53 427.377L1767.7 420.778L1773.84 433.09L1769.95 428.939L1781.16 455.197L1770.64 439.387L1780.86 475.742L1775.79 470.075L1781.31 487.052L1775.51 477.095L1787.33 517.438L1778.23 500.461L1784.14 526.509L1778 514.313L1789.82 551.111L1781.33 540.081L1786.24 558.364L1780 551.578L1792.56 575.504L1780.9 568.858L1787.75 577.812Z" fill="#1D5A6B"/>
<path d="M0.060396 744.563H22.7289C53.2488 735.538 77.3466 738.966 100.82 744.563H434.506C433.12 743.073 431.545 741.838 429.835 740.902C424.078 737.497 413.025 734.815 406.643 738.966L416.407 732.6L406.341 733.999C406.242 734.02 406.14 734.015 406.042 733.984C405.945 733.954 405.854 733.899 405.777 733.823C405.7 733.747 405.639 733.653 405.597 733.546C405.555 733.439 405.535 733.323 405.536 733.206L401.168 736.425C400.684 727.89 394.886 719.914 386.632 716.416C389.545 718.446 391.746 721.599 392.851 725.322C393.955 729.045 393.892 733.1 392.672 736.774C391.988 734.135 390.5 731.873 388.485 730.408C386.21 729.032 382.304 729.825 381.781 732.367C371.614 727.703 358.025 730.035 350.113 738.057C350.735 735.408 351.869 732.957 353.428 730.889C354.986 728.82 356.93 727.189 359.112 726.117C356.249 725.972 353.395 726.569 350.757 727.866C353.144 724.369 356.032 721.372 359.293 719.005C351.112 719.88 343.053 721.908 335.296 725.045C339.323 715.553 334.048 703.66 324.022 699.999C325.225 702.16 325.637 704.785 325.17 707.298C324.648 708.612 323.699 709.633 322.53 710.139C321.361 710.646 320.067 710.597 318.929 710.003L314.278 716.999C310.802 708.573 307.313 700.162 303.81 691.767C304.499 694.293 304.659 696.972 304.277 699.583C303.896 702.194 302.983 704.663 301.616 706.785L299.22 701.678L295.717 714.411C292.818 702.541 284.524 692.001 273.29 685.984C273.518 690.477 273.733 694.993 273.934 699.533C269.908 694.006 260.929 692.327 254.728 695.965L257.849 690.998C249.665 689.127 241.189 690.017 233.429 693.563C235.055 689.759 237.629 686.607 240.817 684.515C238.044 684.28 235.281 685.099 232.946 686.847C232.154 682.929 231.355 679.043 230.55 675.187C230.059 681.009 228.262 686.58 225.336 691.348C225.457 679.361 219.659 667.561 209.895 660.029C211.685 666.768 211.99 673.92 210.781 680.83C209.412 677.029 204.882 674.557 200.715 675.304L203.453 669.031L194.192 675.117C195.151 670.569 197.106 666.384 199.869 662.968C193.691 662.275 187.457 663.024 181.533 665.171C175.61 667.318 170.118 670.819 165.383 675.467C166.873 664.273 174.261 653.78 184.71 647.996C172.047 650.771 162.202 662.734 162.565 674.814C161.941 671.876 161.296 668.961 160.672 666.022C159.746 668.867 158.82 671.736 157.914 674.581C152.426 667.805 149.241 658.956 148.949 649.671C148.656 640.385 151.276 631.291 156.324 624.07C148.961 632.381 143.342 642.537 139.896 653.756C139.212 652.17 138.547 650.585 137.883 649.092C136.917 651.867 135.87 654.619 135.004 657.371C129.549 649.652 117.892 646.457 108.591 650.142C108.41 647.696 109.068 645.266 110.423 643.379C107.755 646.985 104.407 649.833 100.639 651.704C99.2464 649.349 97.4429 647.358 95.3451 645.86C93.2472 644.362 90.9016 643.389 88.4594 643.006C90.2803 645.513 91.3411 648.642 91.4792 651.914L68.3477 643.146L76.6621 651.098C66.0526 649.815 57.5369 640.371 57.9194 630.343C55.8659 635.66 53.8058 640.993 51.7389 646.341L46.3435 639.508L31.4258 634.844C32.4324 637.992 33.439 641.117 34.4859 644.172C25.8905 638.983 16.315 636.354 6.62338 636.523L14.6761 645.198C9.96831 642.166 5.06099 639.569 0 637.432L0.060396 744.563Z" fill="#001032"/>
<path d="M1292.06 621.304C1292.06 621.304 1373.8 525.134 1403.17 411.24" stroke="#230545" stroke-miterlimit="10"/>
<path d="M1547.47 622.774H1326.55L1412.11 377.217H1633.03L1547.47 622.774Z" fill="url(#paint3_linear_149_1107)"/>
<path d="M1556.41 622.774H1335.47L1421.05 377.217H1641.97L1556.41 622.774Z" fill="#230545"/>
<path d="M1507.88 622.774H1335.47L1421.05 377.217H1459.36L1507.88 622.774Z" fill="url(#paint4_linear_149_1107)"/>
<path d="M1782.45 622.773H1479.79L1412.11 377.217H1714.77L1782.45 622.773Z" fill="url(#paint5_linear_149_1107)"/>
<path d="M1412.05 377.311C1412.05 377.311 1470.79 569.628 1606.16 624.359" stroke="#230545" stroke-miterlimit="10"/>
<path d="M1714.77 377.311C1714.77 377.311 1738.93 554.82 1864.19 624.359" stroke="#230545" stroke-miterlimit="10"/>
<path d="M1413.38 486.679L1405.71 622.773H1415.93L1413.38 486.679Z" fill="#230545"/>
<path d="M1182.85 723.349C1188.38 726.006 1193.33 730.07 1197.33 735.242C1196.92 727.873 1193.02 720.667 1186.62 715.513C1193.77 719.57 1200.17 725.201 1205.46 732.094L1203.95 700.006C1205.38 706.582 1206.81 713.181 1208.22 719.758L1208.5 708.517C1212.53 706.052 1215.98 702.491 1218.56 698.14L1219.35 720.924C1220.82 708.051 1228.63 695.762 1240.63 687.39L1231.69 710.336C1232.64 708.657 1233.6 706.978 1234.55 705.276V709.543L1239.82 700.659C1240.49 708.074 1241.17 715.49 1241.84 722.906C1244.17 713.578 1246.49 704.25 1248.8 694.922L1255.14 715.91L1253.39 680.627L1264.93 705.649L1263.3 693.989L1265.59 699.446C1265 697.35 1264.93 695.102 1265.4 692.964C1265.87 690.826 1266.85 688.885 1268.23 687.367C1269.22 694.176 1270.24 701.009 1271.23 707.818C1270.34 694.199 1276.58 680.371 1288.06 670.506C1281.87 679.551 1278.94 691.012 1279.87 702.501C1282.1 692.345 1287.08 683.282 1294.08 676.639C1292.83 682.236 1291.56 687.81 1290.29 693.406L1292.31 686.177C1292.61 688.509 1292.89 690.631 1293.17 692.847C1296.26 680.085 1297 666.714 1295.35 653.6C1299.37 662.819 1303.35 672.038 1307.27 681.257L1306.3 673.771L1307.67 677.549C1308.39 674.541 1309.12 671.532 1309.86 668.524L1313.63 686.154C1313.45 675.893 1320.41 665.749 1331.2 660.502C1327.17 667.244 1324.47 674.925 1323.27 683.006L1328.28 678.855L1327.62 686.154C1334.99 677.515 1343.63 670.477 1353.15 665.376C1349.46 673.491 1345.78 681.607 1342.11 689.722C1348.88 682.257 1353.9 672.937 1356.73 662.624C1359.17 673.457 1359.02 684.854 1356.31 695.598L1360.47 683.659C1360.25 687.623 1360.01 691.611 1359.77 695.575C1360.29 693.453 1360.8 691.331 1361.3 689.185C1361.6 691.168 1361.88 693.15 1362.19 695.132C1362.67 689.476 1364.98 684.239 1368.65 680.464L1365.75 703.644C1369.17 693.546 1377.83 684.731 1389.14 679.858C1383.9 687.037 1380.1 695.482 1378.03 704.576C1379.7 703.685 1381.18 702.393 1382.39 700.784C1383.59 699.176 1384.49 697.289 1385.01 695.249C1387.61 702.459 1391.22 709.124 1395.68 714.977C1394.84 709.063 1395.4 702.994 1397.3 697.417C1398.48 701.708 1399.67 705.991 1400.88 710.266C1400.4 706.279 1402.63 702.128 1406.54 699.703L1419.56 728.829C1418.25 725.491 1417.61 721.854 1417.68 718.189C1417.75 714.523 1418.53 710.923 1419.96 707.655C1421.65 714.651 1423.33 721.833 1425.02 728.899L1430.19 718.522C1431.11 719.609 1431.77 720.955 1432.1 722.427C1432.44 723.898 1432.44 725.445 1432.1 726.917L1444.18 709.404C1444.67 717.55 1445.14 725.688 1445.59 733.819L1449.74 733.143C1451.07 739.906 1452.38 746.692 1453.77 753.454C1453.14 745.363 1457.37 737.131 1464.86 731.814C1461.74 740.699 1460.17 750.208 1460.23 759.797C1451.82 760.189 1443.42 758.757 1435.47 755.577C1426.47 759.448 1415.58 758.468 1405.71 756.556C1395.85 754.644 1385.92 751.892 1375.79 752.475C1364.42 753.175 1354.13 758.072 1343.36 761.173C1311.92 770.291 1277.41 764.182 1244.07 763.505C1229.82 763.179 1215.38 763.878 1201.51 761.173C1187.64 758.468 1174.07 751.519 1169 740.605C1176.45 742.937 1184.16 746.016 1191.87 747.485C1195.74 740.046 1188.99 728.736 1182.85 723.349Z" fill="#001032"/>
<path d="M0 0H1920V739H0V0Z" fill="url(#paint6_linear_149_1107)" fill-opacity="0.6"/>
</g>
<defs>
<linearGradient id="paint0_linear_149_1107" x1="1784" y1="739" x2="7.16019" y2="156.506" gradientUnits="userSpaceOnUse">
<stop stop-color="#E1F0F9"/>
<stop offset="1" stop-color="white"/>
</linearGradient>
<linearGradient id="paint1_linear_149_1107" x1="1059.74" y1="882.367" x2="936.857" y2="284.947" gradientUnits="userSpaceOnUse">
<stop stop-color="#21295B"/>
<stop offset="1" stop-color="#42B2FC"/>
</linearGradient>
<linearGradient id="paint2_linear_149_1107" x1="589683" y1="74948.8" x2="589221" y2="42620.9" gradientUnits="userSpaceOnUse">
<stop stop-color="#21295B"/>
<stop offset="1" stop-color="#42B2FC"/>
</linearGradient>
<linearGradient id="paint3_linear_149_1107" x1="1440.61" y1="405.108" x2="1557.49" y2="616.139" gradientUnits="userSpaceOnUse">
<stop stop-color="#FFD71D"/>
<stop offset="1" stop-color="#804700"/>
</linearGradient>
<linearGradient id="paint4_linear_149_1107" x1="1366.43" y1="403.009" x2="1460.22" y2="621.812" gradientUnits="userSpaceOnUse">
<stop stop-color="#FF484E"/>
<stop offset="1" stop-color="#6C2B5C"/>
</linearGradient>
<linearGradient id="paint5_linear_149_1107" x1="161494" y1="55845.9" x2="173256" y2="92945.9" gradientUnits="userSpaceOnUse">
<stop stop-color="#FFD71D"/>
<stop offset="1" stop-color="#804700"/>
</linearGradient>
<linearGradient id="paint6_linear_149_1107" x1="566.5" y1="331" x2="1336.5" y2="708.5" gradientUnits="userSpaceOnUse">
<stop/>
<stop offset="1" stop-opacity="0"/>
</linearGradient>
<clipPath id="clip0_149_1107">
<rect width="1920" height="739" fill="white"/>
</clipPath>
</defs>
</svg>
