<svg width="123" height="143" viewBox="0 0 123 143" fill="none" xmlns="http://www.w3.org/2000/svg">
<g clip-path="url(#clip0_649_12026)">
<mask id="mask0_649_12026" style="mask-type:luminance" maskUnits="userSpaceOnUse" x="0" y="32" width="79" height="80">
<path d="M78.3673 32H0V112H78.3673V32Z" fill="white"/>
</mask>
<g mask="url(#mask0_649_12026)">
<path d="M32.338 68.0601C33.075 67.9702 33.7724 67.6768 34.3522 67.213L69.4641 39.1225C72.4166 36.7604 70.7464 31.999 66.9653 31.999H53.5527C52.6729 31.999 51.8176 32.2891 51.1193 32.8244L11.6403 63.0854C8.40729 65.5636 10.5149 70.7243 14.5585 70.2306L32.338 68.0601Z" fill="white"/>
<path d="M14.5462 73.7742C10.5033 73.2833 8.39852 78.4432 11.6312 80.9201L51.1194 111.177C51.8176 111.712 52.6727 112.001 53.5523 112.001H66.9669C70.7478 112.001 72.4182 107.24 69.466 104.878L34.3533 76.7818C33.7728 76.3173 33.0744 76.0237 32.3363 75.9341L14.5462 73.7742Z" fill="white"/>
</g>
<path d="M0 0L0 10.2144C0 11.5557 0.265205 12.884 0.780251 14.1235C1.2953 15.3622 2.05018 16.4883 3.00185 17.4374C3.9543 18.3858 5.08431 19.138 6.32733 19.6513C7.57113 20.1645 8.9041 20.4288 10.2501 20.4288H51.253C64.8453 20.4288 77.881 25.8095 87.4924 35.3873C97.1037 44.9651 102.503 57.9549 102.504 71.5C102.504 78.2068 101.178 84.848 98.6023 91.0442C96.0267 97.2406 92.2516 102.871 87.4925 107.613C82.7335 112.356 77.0837 116.117 70.8656 118.684C64.6477 121.25 57.9833 122.571 51.253 122.571H10.2532C8.90717 122.571 7.57343 122.835 6.32964 123.348C5.08585 123.861 3.95507 124.613 3.0034 125.562C2.05095 126.51 1.29607 127.637 0.780251 128.876C0.265205 130.115 0 131.444 0 132.786V143L51.2506 143C60.6729 143 70.003 141.151 78.7081 137.557C87.4132 133.964 95.3228 128.697 101.985 122.058C108.648 115.419 113.933 107.537 117.539 98.8618C121.144 90.187 123 80.8894 123 71.5C123 52.5374 115.441 34.3508 101.985 20.942C88.5296 7.53325 70.2798 0 51.2506 0L0 0Z" fill="white"/>
</g>
<defs>
<clipPath id="clip0_649_12026">
<rect width="123" height="143" fill="white"/>
</clipPath>
</defs>
</svg>
